<svg id="Layer_1" data-name="Layer 1" xmlns="http://www.w3.org/2000/svg" xmlns:xlink="http://www.w3.org/1999/xlink" viewBox="0 0 512 512"><defs><style>.cls-1{fill:#fff;}.cls-2{fill:url(#linear-gradient);}.cls-3{fill:url(#linear-gradient-2);}.cls-4{fill:url(#linear-gradient-3);}</style><linearGradient id="linear-gradient" x1="256" y1="480" x2="256" y2="236.8" gradientUnits="userSpaceOnUse"><stop offset="0" stop-color="#f2a4ba"/><stop offset="1" stop-color="#ffdce7"/></linearGradient><linearGradient id="linear-gradient-2" y1="236.8" y2="134.4" xlink:href="#linear-gradient"/><linearGradient id="linear-gradient-3" y1="256" x2="512" y2="256" gradientUnits="userSpaceOnUse"><stop offset="0.16" stop-color="#f96992"/><stop offset="1" stop-color="#f96992"/></linearGradient></defs><title>gift-filled</title><rect class="cls-1" x="19.2" y="134.4" width="473.6" height="102.4"/><rect class="cls-1" x="57.6" y="236.8" width="396.8" height="243.2"/><rect class="cls-2" x="204.8" y="236.8" width="102.4" height="243.2"/><rect class="cls-3" x="204.8" y="134.4" width="102.4" height="102.4"/><path class="cls-4" d="M492.8,115.2H369.87A70.35,70.35,0,0,0,256,35,70.35,70.35,0,0,0,142.13,115.2H19.2A19.2,19.2,0,0,0,0,134.4V236.8A19.2,19.2,0,0,0,19.2,256H38.4V480a19.2,19.2,0,0,0,19.2,19.2H454.4A19.2,19.2,0,0,0,473.6,480V256h19.2A19.2,19.2,0,0,0,512,236.8V134.4A19.2,19.2,0,0,0,492.8,115.2ZM224,153.6h64v64H224ZM307.2,51.2a32,32,0,0,1,0,64h-32v-32A32,32,0,0,1,307.2,51.2Zm-102.4,0a32,32,0,0,1,32,32v32h-32a32,32,0,0,1,0-64ZM38.4,153.6H185.6v64H38.4ZM76.8,460.8V256H185.6V460.8Zm147.2,0V256h64V460.8Zm211.2,0H326.4V256H435.2Zm38.4-243.2H326.4v-64H473.6Z"/></svg>